<?xml version="1.0" standalone="no"?>
<!DOCTYPE svg PUBLIC "-//W3C//DTD SVG 20010904//EN"
 "http://www.w3.org/TR/2001/REC-SVG-20010904/DTD/svg10.dtd">
<svg version="1.0" xmlns="http://www.w3.org/2000/svg"
 width="500.000000pt" height="500.000000pt" viewBox="0 0 500.000000 500.000000"
 preserveAspectRatio="xMidYMid meet">
<metadata>
Created by potrace 1.11, written by Peter Selinger 2001-2013
</metadata>
<g transform="translate(0.000000,500.000000) scale(0.100000,-0.100000)"
fill="#000000" stroke="none">
<path d="M1400 3735 c0 -111 -10 -137 -90 -230 -28 -33 -72 -90 -97 -127 -26
-38 -48 -66 -50 -64 -2 2 1 60 8 129 9 94 9 143 1 193 -6 36 -13 68 -16 71
-19 19 -71 -81 -87 -170 -15 -78 -2 -155 37 -233 l25 -50 -44 -90 c-25 -49
-57 -126 -73 -172 -15 -45 -28 -81 -30 -80 -1 2 -7 59 -13 126 -13 162 -33
186 -81 100 -19 -35 -22 -50 -18 -117 5 -81 40 -170 76 -192 16 -10 17 -19 11
-58 -13 -77 -10 -245 6 -327 8 -43 14 -79 12 -80 -1 -2 -29 33 -62 77 -57 78
-120 129 -159 129 -13 0 -16 -5 -11 -22 32 -105 105 -193 200 -238 56 -27 63
-34 74 -72 7 -24 42 -103 77 -177 35 -74 64 -135 64 -137 0 -2 -27 14 -61 36
-103 66 -179 86 -179 46 0 -29 67 -111 114 -141 41 -25 61 -30 119 -32 l70 -2
62 -83 c35 -46 92 -114 128 -153 37 -38 65 -70 64 -71 -1 -2 -27 6 -57 16 -64
23 -214 28 -208 8 7 -20 97 -77 141 -89 50 -14 142 -14 177 -1 20 7 35 2 95
-37 71 -46 222 -110 262 -111 12 0 54 -18 95 -39 102 -56 240 -98 380 -118
102 -14 137 -15 232 -5 175 18 329 67 452 145 25 16 50 24 62 20 39 -10 195
54 290 119 43 29 45 30 105 18 65 -12 123 -5 190 24 36 15 97 63 97 77 0 23
-168 5 -255 -27 -11 -4 12 26 51 67 39 41 99 112 133 158 l62 85 49 -3 c68 -3
124 16 176 62 55 48 93 115 72 128 -27 18 -96 -8 -188 -70 -24 -17 -45 -29
-46 -28 -1 1 24 55 57 121 32 65 67 146 79 180 19 59 22 62 70 79 86 31 182
142 205 240 17 68 -84 7 -164 -99 -28 -37 -51 -71 -51 -75 0 -5 -4 -9 -9 -9
-5 0 -5 16 0 38 22 92 29 216 19 315 -10 96 -9 101 11 120 12 11 33 45 47 76
44 96 30 247 -25 268 -28 11 -41 -25 -48 -130 -10 -151 -13 -154 -50 -46 -17
52 -50 130 -72 173 l-40 79 31 61 c29 56 31 69 31 161 0 93 -2 105 -33 168
-18 37 -39 67 -47 67 -9 0 -16 -17 -21 -47 -7 -51 1 -294 12 -330 10 -37 -9
-26 -38 20 -15 23 -61 85 -103 137 -106 132 -115 151 -115 255 l0 85 -1095 0
-1095 0 0 -95z m2263 -238 c93 -113 227 -313 227 -339 0 -4 -27 10 -59 32 -55
38 -166 90 -191 90 -19 0 23 -59 80 -115 63 -59 122 -93 183 -103 39 -7 43
-11 60 -57 32 -85 58 -196 66 -285 4 -47 7 -87 5 -89 -1 -1 -18 28 -38 65 -34
67 -104 161 -132 177 -18 11 -18 -23 0 -83 26 -85 60 -145 115 -200 l54 -54
-12 -81 c-13 -80 -75 -290 -89 -299 -5 -3 -5 23 -1 57 9 71 -4 155 -32 209
-32 64 -42 53 -59 -70 -12 -87 -1 -173 31 -238 19 -39 20 -48 8 -76 -30 -73
-216 -355 -227 -344 -2 3 5 29 16 58 24 64 37 164 23 172 -17 11 -68 -63 -90
-130 -11 -35 -24 -95 -27 -133 -7 -69 -7 -70 -62 -117 -62 -54 -182 -137 -189
-131 -2 3 7 21 21 42 28 41 66 136 66 164 0 10 18 50 40 87 46 78 80 163 112
279 22 79 23 89 26 817 l3 737 27 -10 c15 -5 35 -20 45 -32z m-2260 -704 c4
-774 2 -750 47 -889 22 -69 72 -178 107 -233 19 -29 43 -81 53 -115 11 -33 31
-78 46 -99 14 -21 24 -40 22 -42 -7 -8 -132 81 -191 135 -54 49 -57 55 -57 99
0 93 -58 249 -102 272 -16 9 -18 5 -18 -40 0 -27 9 -78 20 -112 10 -35 18 -65
16 -67 -10 -9 -124 158 -190 278 l-47 84 27 59 c18 42 27 81 30 136 5 80 -13
192 -32 198 -6 2 -21 -20 -35 -49 -21 -44 -24 -66 -24 -156 l0 -104 -21 49
c-25 57 -59 182 -74 274 l-12 67 52 48 c34 31 62 72 85 118 35 75 58 163 45
171 -14 9 -106 -104 -140 -171 -18 -35 -35 -64 -38 -64 -3 0 -2 36 2 79 7 86
32 194 66 284 19 50 25 57 48 57 64 1 181 76 242 155 43 56 47 65 27 65 -19 0
-152 -66 -202 -100 -25 -17 -45 -28 -45 -25 0 12 78 139 130 213 57 82 131
162 148 162 8 0 12 -198 15 -737z m457 309 c0 -4 -14 -20 -31 -35 -24 -20 -29
-32 -24 -49 15 -50 282 -659 295 -672 5 -5 19 13 33 40 40 80 107 242 107 259
0 22 -90 229 -143 330 -43 81 -47 85 -120 100 -16 3 -27 11 -24 18 4 14 307
23 307 9 0 -4 -14 -18 -31 -31 -26 -19 -29 -27 -24 -53 11 -48 91 -233 101
-232 15 3 87 197 88 238 1 36 -2 40 -34 51 -19 6 -35 16 -35 21 0 5 53 10 118
12 123 3 145 -6 83 -32 -40 -17 -44 -24 -126 -220 l-62 -149 18 -46 c25 -68
146 -321 153 -321 14 1 273 580 293 655 14 53 2 73 -53 84 -18 3 -34 12 -37
19 -5 15 243 18 253 3 3 -5 -7 -19 -21 -30 l-27 -21 28 -77 c16 -43 91 -224
167 -403 148 -345 170 -381 237 -397 21 -5 36 -15 36 -23 0 -13 -27 -15 -165
-15 -128 0 -165 3 -165 13 0 7 11 18 25 25 21 11 25 19 24 57 -1 48 -54 196
-83 231 -16 20 -25 21 -186 20 -119 -1 -173 -5 -182 -14 -14 -14 -89 -181 -98
-217 -8 -34 26 -78 63 -82 16 -2 28 -10 30 -20 3 -15 -11 -17 -121 -20 -68 -2
-132 -2 -141 0 -26 5 -19 30 13 47 17 8 32 19 36 24 6 11 -130 339 -149 359
-16 16 -53 -58 -142 -280 -32 -82 -63 -147 -69 -145 -9 3 -143 304 -290 654
-35 84 -71 165 -79 181 -26 51 -73 90 -116 97 -37 6 -50 22 -33 38 9 10 303 9
303 -1z m1397 -1669 c-3 -10 -8 -29 -11 -44 -4 -20 -17 -29 -71 -48 -36 -13
-68 -21 -71 -18 -3 2 10 15 28 28 18 12 52 40 75 61 47 42 57 46 50 21z
m-1387 -97 l25 -18 -25 8 c-46 13 -110 43 -110 51 0 4 -3 19 -7 33 -6 23 -3
22 43 -16 27 -22 60 -48 74 -58z"/>
<path d="M2827 2873 c-16 -26 -127 -286 -127 -297 0 -21 24 -26 133 -26 119 0
147 6 147 29 0 39 -122 301 -140 301 -5 0 -11 -3 -13 -7z"/>
</g>
</svg>
